<svg xmlns="http://www.w3.org/2000/svg" width="38" height="24" viewBox="0 0 38 24" role="img" aria-labelledby="pi-american_express"><title id="pi-american_express">American Express</title><path opacity=".07" d="M35 0H3C1.3 0 0 1.3 0 3v18c0 1.7 1.4 3 3 3h32c1.7 0 3-1.3 3-3V3c0-1.7-1.4-3-3-3z"/><path fill="#fff" d="M35 1c1.1 0 2 .9 2 2v18c0 1.1-.9 2-2 2H3c-1.1 0-2-.9-2-2V3c0-1.1.9-2 2-2h32"/><path fill="#006FCF" d="M11.6,18.1h2.2L16,11.9l2.2,6.2h2.2L16,5h-2.1L9.4,18.1z M22.9,18.1h5.8V16h-3.8c-0.5,0-0.9-0.4-0.9-0.8v-1.1h4.7v-2.1h-4.7V9.4c0-0.5,0.4-0.8,0.9-0.8h3.8V6.5h-5.8V18.1z M3.3,18.1h5.8V6.5H3.3V18.1z M4.9,16V8.6h2.5V16H4.9z"/></svg>