<svg xmlns="http://www.w3.org/2000/svg" width="38" height="24" viewBox="0 0 38 24" role="img" aria-labelledby="pi-discover"><title id="pi-discover">Discover</title><path opacity=".07" d="M35 0H3C1.3 0 0 1.3 0 3v18c0 1.7 1.4 3 3 3h32c1.7 0 3-1.3 3-3V3c0-1.7-1.4-3-3-3z"/><path fill="#fff" d="M35 1c1.1 0 2 .9 2 2v18c0 1.1-.9 2-2 2H3c-1.1 0-2-.9-2-2V3c0-1.1.9-2 2-2h32"/><path d="M11.3 12.4c0-1.1.6-2 1.7-2h2.1c1.1 0 1.7.9 1.7 2s-.6 2-1.7 2h-2.1c-1.1 0-1.7-.9-1.7-2zm12.3-1.2h-1.6v-2.3h-1.6v2.3h-1.6v1.5h1.6v2.3h1.6v-2.3h1.6v-1.5zM27.9 10.3h-1.6v5.2h1.6v-5.2zM28 12.4c0-3.3-2.6-6-5.8-6h-5.5c-3.2 0-5.8 2.7-5.8 6s2.6 6 5.8 6h5.5c3.2 0 5.8-2.7 5.8-6zm-7.9 4.1h-4c-2.3 0-4.1-1.8-4.1-4.1s1.8-4.1 4.1-4.1h4c2.3 0 4.1 1.8 4.1 4.1s-1.8 4.1-4.1 4.1z" fill="#F68121"/><path d="M11.3 12.4c0-1.1.6-2 1.7-2h2.1c1.1 0 1.7.9 1.7 2s-.6 2-1.7 2h-2.1c-1.1 0-1.7-.9-1.7-2z" fill="#fff"/></svg>