<svg xmlns="http://www.w3.org/2000/svg" width="38" height="24" viewBox="0 0 38 24" role="img" aria-labelledby="pi-visa"><title id="pi-visa">Visa</title><path opacity=".07" d="M35 0H3C1.3 0 0 1.3 0 3v18c0 1.7 1.4 3 3 3h32c1.7 0 3-1.3 3-3V3c0-1.7-1.4-3-3-3z"/><path fill="#fff" d="M35 1c1.1 0 2 .9 2 2v18c0 1.1-.9 2-2 2H3c-1.1 0-2-.9-2-2V3c0-1.1.9-2 2-2h32"/><path d="M28.8 10.1c-.1-.3-.3-.5-.5-.7-.2-.2-.5-.3-.8-.3-.5 0-1 .2-1.4.6l.4.3c.4-.3.8-.5 1.1-.5.3 0 .5.1.7.2.2.2.3.4.3.7 0 .2-.1.4-.2.5l-1.1.9c-.6.5-1.1.9-1.1 1.6 0 .5.3.8.9.8.4 0 .7-.1.9-.3.2-.2.3-.4.4-.6l.4.2c-.1.3-.3.6-.6.8-.3.2-.6.3-1 .3-.8 0-1.4-.2-1.9-.7-.4-.5-.6-1.1-.6-1.8 0-.6.3-1.2.8-1.7l1.3-1zM23 15h-1.3l-1.3-4.4-.4.2c-.1.3-.2.6-.2.9v3.3h-1.1V9.4h1.7l1.1 3.9.6-3.9H23v5.6zm-3.8-3.3c0 .3-.1.6-.2.8-.2.2-.4.4-.7.4-.3 0-.6-.1-.8-.4-.2-.2-.3-.5-.3-.8s.1-.6.3-.8c.2-.2.5-.4.8-.4.3 0 .6.1.7.4.2.2.3.5.3.8zm-2.2 3.3h-1.1v-5.6h1.1v5.6zM15.4 14c.4 0 .8-.1 1.1-.4.3-.3.4-.6.4-1s-.1-.7-.4-1c-.3-.2-1-.4-1.6-.6-.6-.2-1-.3-1-.5s-.1-.4.2-.6c.2-.2.5-.2.8-.2.4 0 .7.1.9.2.2.2.3.4.4.6l.4-.2c-.1-.3-.3-.5-.6-.7-.2-.1-.5-.2-.8-.2-.7 0-1.2.2-1.6.6-.4.4-.6.9-.6 1.5 0 .5.2.9.7 1.2.5.3 1.1.5 1.7.7.6.2.9.3.9.6s.1.4-.2.5c-.2.1-.5.2-.8.2-.4 0-.7-.1-1-.3-.2-.1-.4-.3-.5-.5l-.4.2c.1.3.4.6.7.8.3.2.7.3 1.1.3zM10.6 9.4h1.1v2.2c.3-.3.6-.5.9-.7.3-.2.7-.3 1-.3.5 0 .9.2 1.2.5.3.3.5.7.5 1.2v2.7h-1.1v-2.5c0-.3-.1-.5-.3-.7s-.4-.3-.7-.3c-.3 0-.6.1-.8.4-.2.2-.3.5-.3.8v2.2h-1.1V9.4z" fill="#142688"/></svg>